<?xml version="1.0" standalone="no"?>
<!--Created with Sketsa SVG Editor (http://www.kiyut.com)-->
<svg contentScriptType="text/ecmascript" width="100.0px" xmlns:xlink="http://www.w3.org/1999/xlink" baseProfile="full"
    zoomAndPan="magnify" contentStyleType="text/css" height="50.0px" preserveAspectRatio="xMidYMid meet" xmlns="http://www.w3.org/2000/svg"
    version="1.0">
    <path fill="#333333" d="M 64.083 17.5 c -0.009 4.739 -3.844 8.574 -8.583 8.583 c -4.741 -0.009 -8.577 -3.844 -8.585 
        -8.583 c 0.008 -4.741 3.844 -8.577 8.585 -8.585 c 1.913 0.0 3.665 0.629 5.09 1.686 l -1.782 1.783 l 8.429 2.256 
        l -2.26 -8.427 l -1.89 1.89 c -2.072 -1.677 -4.717 -2.688 -7.587 -2.688 C 48.826004 5.4179993 43.418 10.826 
        43.416 17.5 C 43.418 24.175 48.826004 29.583 55.5 29.583 S 67.583 24.175 67.583 17.5 H 64.083 z" stroke="#333333"/>
    <path fill="#333333" d="M 32.132 8.971001 c -2.203 -2.205 -5.916 -2.098 -8.25 0.235 L 23.5 9.588001 l -0.382 -0.382 
        c -2.334 -2.333 -6.047 -2.44 -8.25 -0.235 c -2.204 2.203 -2.098 5.916 0.235 8.249 l 8.396 8.396 l 8.396 -8.396 C 
        34.229 14.887001 34.336 11.174 32.132 8.971001 z" stroke="#333333"/>
    <path fill="#333333" d="M 90.16699 5.5 L 90.16699 13.681 L 75.684006 5.318001 L 75.684006 25.682 L 90.16699 17.318 L 
        90.16699 25.5 L 94.5 25.5 L 94.5 5.5 z" stroke="#333333"/>
</svg>